<?xml version="1.0" encoding="UTF-8" standalone="no"?>
<!-- Created with Inkscape (http://www.inkscape.org/) -->

<svg
   width="167.09521"
   height="121"
   viewBox="0 0 167.09522 121"
   version="1.1"
   id="svg1"
   xml:space="preserve"
   inkscape:version="1.4.3 (0d15f75, 2025-12-25)"
   sodipodi:docname="docroot-logo.svg"
   xmlns:inkscape="http://www.inkscape.org/namespaces/inkscape"
   xmlns:sodipodi="http://sodipodi.sourceforge.net/DTD/sodipodi-0.dtd"
   xmlns="http://www.w3.org/2000/svg"
   xmlns:svg="http://www.w3.org/2000/svg"><sodipodi:namedview
     id="namedview1"
     pagecolor="#000000"
     bordercolor="#000000"
     borderopacity="0.25"
     inkscape:showpageshadow="2"
     inkscape:pageopacity="0.0"
     inkscape:pagecheckerboard="0"
     inkscape:deskcolor="#d1d1d1"
     inkscape:document-units="px"
     showguides="false"
     showgrid="false"
     inkscape:zoom="5.0416667"
     inkscape:cx="44.231405"
     inkscape:cy="50.082645"
     inkscape:window-width="1920"
     inkscape:window-height="1009"
     inkscape:window-x="-8"
     inkscape:window-y="-8"
     inkscape:window-maximized="1"
     inkscape:current-layer="layer1"><sodipodi:guide
       position="383.03569,800.16926"
       orientation="0,1"
       id="guide1"
       inkscape:locked="false"
       inkscape:label=""
       inkscape:color="rgb(0,134,229)" /><sodipodi:guide
       position="394.16353,460.01178"
       orientation="0,1"
       id="guide2"
       inkscape:locked="false"
       inkscape:label=""
       inkscape:color="rgb(0,134,229)" /><sodipodi:guide
       position="282.5375,762.37399"
       orientation="0,1"
       id="guide5"
       inkscape:locked="false"
       inkscape:label=""
       inkscape:color="rgb(0,134,229)" /><sodipodi:guide
       position="221.79346,497.80706"
       orientation="0,1"
       id="guide6"
       inkscape:locked="false"
       inkscape:label=""
       inkscape:color="rgb(0,134,229)" /><sodipodi:guide
       position="81.909921,267.54567"
       orientation="-1,0"
       id="guide7"
       inkscape:locked="false"
       inkscape:label=""
       inkscape:color="rgb(0,134,229)" /><sodipodi:guide
       position="119.7052,297.05278"
       orientation="-1,0"
       id="guide8"
       inkscape:locked="false"
       inkscape:label=""
       inkscape:color="rgb(0,134,229)" /><sodipodi:guide
       position="157.50047,267.54567"
       orientation="-1,0"
       id="guide9"
       inkscape:locked="false"
       inkscape:label=""
       inkscape:color="rgb(0,134,229)" /><sodipodi:guide
       position="195.29575,268.52924"
       orientation="-1,0"
       id="guide10"
       inkscape:locked="false"
       inkscape:label=""
       inkscape:color="rgb(0,134,229)" /><sodipodi:guide
       position="611.04378,341.31345"
       orientation="-1,0"
       id="guide11"
       inkscape:locked="false"
       inkscape:label=""
       inkscape:color="rgb(0,134,229)" /><sodipodi:guide
       position="648.83906,369.83699"
       orientation="-1,0"
       id="guide12"
       inkscape:locked="false"
       inkscape:label=""
       inkscape:color="rgb(0,134,229)" /><sodipodi:guide
       position="686.63433,359.01771"
       orientation="-1,0"
       id="guide13"
       inkscape:locked="false"
       inkscape:label=""
       inkscape:color="rgb(0,134,229)" /><sodipodi:guide
       position="724.42961,381.63983"
       orientation="-1,0"
       id="guide14"
       inkscape:locked="false"
       inkscape:label=""
       inkscape:color="rgb(0,134,229)" /><sodipodi:guide
       position="138.60283,886.70325"
       orientation="-1,0"
       id="guide15"
       inkscape:locked="false"
       inkscape:label=""
       inkscape:color="rgb(0,134,229)" /><sodipodi:guide
       position="247.61218,819.0669"
       orientation="0,1"
       id="guide16"
       inkscape:locked="false"
       inkscape:label=""
       inkscape:color="rgb(0,134,229)" /><sodipodi:guide
       position="91.224495,913.55509"
       orientation="0,1"
       id="guide17"
       inkscape:locked="false"
       inkscape:label=""
       inkscape:color="rgb(0,134,229)" /><sodipodi:guide
       position="667.73669,941.78317"
       orientation="-1,0"
       id="guide18"
       inkscape:locked="false"
       inkscape:label=""
       inkscape:color="rgb(0,134,229)" /><sodipodi:guide
       position="709.15257,856.86218"
       orientation="0,1"
       id="guide19"
       inkscape:locked="false"
       inkscape:label=""
       inkscape:color="rgb(0,134,229)" /><inkscape:grid
       id="grid19"
       units="mm"
       originx="-31.475907"
       originy="-74.500001"
       spacingx="0.99999998"
       spacingy="1"
       empcolor="#0099e5"
       empopacity="0.30196078"
       color="#0099e5"
       opacity="0.14901961"
       empspacing="5"
       enabled="true"
       visible="false" /></sodipodi:namedview><defs
     id="defs1"><inkscape:path-effect
       effect="fillet_chamfer"
       id="path-effect19"
       is_visible="true"
       lpeversion="1"
       nodesatellites_param="F,0,0,1,0,0,0,1 @ F,0,0,1,0,4.9999999,0,1 @ F,0,0,1,0,4.9922992,0,1 @ F,0,0,1,0,5.0000025,0,1 @ F,0,0,1,0,4.9999963,0,1 @ F,0,0,1,0,0,0,1"
       radius="0"
       unit="px"
       method="auto"
       mode="F"
       chamfer_steps="1"
       flexible="false"
       use_knot_distance="true"
       apply_no_radius="true"
       apply_with_radius="true"
       only_selected="false"
       hide_knots="false" /><inkscape:path-effect
       effect="fillet_chamfer"
       id="path-effect2"
       is_visible="true"
       lpeversion="1"
       nodesatellites_param="F,0,0,1,0,10,0,1 @ F,0,0,1,0,9.7618712,0,1 @ F,0,0,1,0,10,0,1 @ F,0,0,1,0,10,0,1"
       radius="0"
       unit="px"
       method="auto"
       mode="F"
       chamfer_steps="1"
       flexible="false"
       use_knot_distance="true"
       apply_no_radius="true"
       apply_with_radius="true"
       only_selected="false"
       hide_knots="false" /></defs><g
     inkscape:label="Layer 1"
     inkscape:groupmode="layer"
     id="layer1"
     transform="translate(-31.475906,-74.500001)"><g
       inkscape:groupmode="layer"
       id="layer2"
       inkscape:label="Layer 2"
       style="display:inline" /><g
       inkscape:groupmode="layer"
       id="layer3"
       inkscape:label="Layer 3" /><path
       style="opacity:0.84;fill:#1a1a1a;stroke:#00ffff;stroke-width:1;stroke-dasharray:none"
       d="m 40,105 h 150.23813 a 7.8306959,7.8306959 51.264404 0 1 7.64422,9.52941 L 182.1693,185.23813 A 12.466161,12.466161 141.2644 0 1 170,195 H 60 A 12.466161,12.466161 38.735596 0 1 47.830695,185.23813 L 32.169305,114.76187 A 8.0217161,8.0217161 128.7356 0 1 40,105 Z"
       id="path1"
       sodipodi:nodetypes="ccccc"
       inkscape:original-d="m 30,105 170,0 -20,90 H 50 Z"
       inkscape:path-effect="#path-effect2" /><path
       style="opacity:0.84;fill:#1a1a1a;stroke:#00ffff;stroke-width:1;stroke-dasharray:none"
       d="M 45,100 V 80.000001 a 4.9999999,4.9999999 135 0 1 5,-5 h 40.007703 a 9.3281967,9.3281967 28.154965 0 1 7.761528,4.153844 l 4.457269,6.685899 A 9.342591,9.342591 28.154967 0 0 110,89.999997 l 70,4e-6 a 4.9999965,4.9999965 45.000001 0 1 5,4.999996 V 100"
       id="path14"
       sodipodi:nodetypes="cccccc"
       transform="translate(0.02351554)"
       inkscape:original-d="M 45,100 V 75.000001 H 95.000002 L 105,89.999997 l 80,4e-6 V 100"
       inkscape:path-effect="#path-effect19" /><g
       id="g44"
       transform="translate(4.674104)"><path
         style="opacity:0.84;fill:#1a1a1a;stroke:#00ffff;stroke-width:1;stroke-dasharray:none"
         d="m 85.183843,137.25254 14.999997,7 v 10 l -14.999997,7 v -7 l 9.000002,-3.99999 v -2.00001 l -9.000002,-3.99999 z"
         id="path19"
         sodipodi:nodetypes="ccccccccc" /><path
         style="opacity:0.84;fill:#1a1a1a;stroke:#00ffff;stroke-width:1;stroke-dasharray:none"
         d="m 135.51498,138 -15,7 v 17.29529 l 6,-1e-5 V 149 l 9,-3.99999 z"
         id="path20"
         sodipodi:nodetypes="ccccccc" /><path
         style="opacity:0.84;fill:#1a1a1a;stroke:#00ffff;stroke-width:1;stroke-dasharray:none"
         d="m 116.84941,124.99999 h 7 l -20,47 h -6.999999 z"
         id="path21" /></g><path
       id="path23"
       style="opacity:0.84;fill:none;stroke:#00ffff;stroke-width:1;stroke-dasharray:none"
       d="m 32.489862,110 h 13.996947 m 3.513192,0 c 3e-6,0.97014 -0.786452,1.7566 -1.756595,1.7566 -0.970143,0 -1.756598,-0.78646 -1.756596,-1.7566 3e-6,-0.97014 0.786457,-1.75659 1.756596,-1.75659 0.970139,0 1.756592,0.78645 1.756595,1.75659 z"
       sodipodi:nodetypes="ccsssss" /><path
       id="path24"
       style="opacity:0.84;fill:none;stroke:#00ffff;stroke-width:1;stroke-dasharray:none"
       d="M 32.106815,115.0464 52.000001,115 l 3.513191,-3.86817 m 3,-1.13183 c 3e-6,0.97014 -0.786452,1.7566 -1.756595,1.7566 -0.970143,0 -1.756599,-0.78646 -1.756596,-1.7566 3e-6,-0.97014 0.786457,-1.75659 1.756596,-1.75659 0.970139,0 1.756592,0.78645 1.756595,1.75659 z"
       sodipodi:nodetypes="cccsssss" /><path
       id="path25"
       style="opacity:0.84;fill:none;stroke:#00ffff;stroke-width:1;stroke-dasharray:none"
       d="m 37.000001,135 h 14.486808 m 3.513192,0 c 2e-6,0.97014 -0.786453,1.7566 -1.756595,1.7566 -0.970143,0 -1.756599,-0.78646 -1.756596,-1.7566 3e-6,-0.97014 0.786457,-1.75659 1.756596,-1.75659 0.970138,0 1.756592,0.78645 1.756595,1.75659 z"
       sodipodi:nodetypes="ccsssss" /><path
       id="path26"
       style="opacity:0.84;fill:none;stroke:#00ffff;stroke-width:1;stroke-dasharray:none"
       d="m 39.361261,147.12567 h 20.066632 m 3.513192,0 c 3e-6,0.97014 -0.786452,1.7566 -1.756595,1.7566 -0.970143,0 -1.756599,-0.78646 -1.756596,-1.7566 3e-6,-0.97014 0.786457,-1.75659 1.756596,-1.75659 0.970139,0 1.756592,0.78645 1.756595,1.75659 z"
       sodipodi:nodetypes="ccsssss" /><path
       id="path29"
       style="opacity:0.84;fill:none;stroke:#00ffff;stroke-width:1;stroke-dasharray:none"
       d="m 33.337164,120 h 20.569635 m 3.513192,0 c 3e-6,0.97014 -0.786452,1.7566 -1.756595,1.7566 -0.970143,0 -1.756599,-0.78646 -1.756596,-1.7566 3e-6,-0.97014 0.786457,-1.75659 1.756596,-1.75659 0.970139,0 1.756592,0.78645 1.756595,1.75659 z"
       sodipodi:nodetypes="ccsssss" /><path
       id="path30"
       style="opacity:0.84;fill:none;stroke:#00ffff;stroke-width:1;stroke-dasharray:none"
       d="m 38.127476,142.57362 h 17.999998 l 2.000001,-2.00449 9.216616,-0.004 m 3.513192,0 c 3e-6,0.97014 -0.786452,1.7566 -1.756595,1.7566 -0.970143,0 -1.756599,-0.78646 -1.756596,-1.7566 3e-6,-0.97014 0.786457,-1.75659 1.756596,-1.75659 0.970139,0 1.756592,0.78645 1.756595,1.75659 z"
       sodipodi:nodetypes="ccccsssss" /><path
       id="path31"
       style="opacity:0.84;fill:none;stroke:#00ffff;stroke-width:1;stroke-dasharray:none"
       d="m 43.473944,166.99999 h 26 m 3.513192,0 c 3e-6,0.97014 -0.786452,1.7566 -1.756595,1.7566 -0.970143,0 -1.756599,-0.78646 -1.756596,-1.7566 3e-6,-0.97014 0.786457,-1.75659 1.756596,-1.75659 0.970139,0 1.756592,0.78645 1.756595,1.75659 z"
       sodipodi:nodetypes="ccsssss" /><path
       id="path32"
       style="opacity:0.84;fill:none;stroke:#00ffff;stroke-width:1;stroke-dasharray:none"
       d="m 45.473944,173.99999 h 9.486808 m 3.513192,0 c 3e-6,0.97014 -0.786452,1.7566 -1.756595,1.7566 -0.970143,0 -1.756599,-0.78646 -1.756596,-1.7566 3e-6,-0.97014 0.786457,-1.75659 1.756596,-1.75659 0.970139,0 1.756592,0.78645 1.756595,1.75659 z"
       sodipodi:nodetypes="ccsssss" /><path
       id="path33"
       style="opacity:0.84;fill:none;stroke:#00ffff;stroke-width:1;stroke-dasharray:none"
       d="m 47.000001,180.99999 h 16.960751 m 3.513192,0 c 3e-6,0.97014 -0.786453,1.7566 -1.756595,1.7566 -0.970143,0 -1.756599,-0.78646 -1.756596,-1.7566 3e-6,-0.97014 0.786457,-1.7566 1.756596,-1.75659 0.970139,0 1.756592,0.78645 1.756595,1.75659 z"
       sodipodi:nodetypes="ccsssss" /><path
       id="path34"
       style="opacity:0.84;fill:none;stroke:#00ffff;stroke-width:1;stroke-dasharray:none"
       d="m 42.473945,161.99999 h 13.999998 l 3.000002,-3 h 8.348276 m 3.513192,0 c 3e-6,0.97014 -0.786452,1.7566 -1.756595,1.7566 -0.970143,0 -1.756599,-0.78646 -1.756596,-1.7566 3e-6,-0.97014 0.786457,-1.75659 1.756596,-1.75659 0.970139,0 1.756592,0.78645 1.756595,1.75659 z"
       sodipodi:nodetypes="ccccsssss" /><path
       id="path35"
       style="opacity:0.84;fill:none;stroke:#00ffff;stroke-width:1;stroke-dasharray:none"
       d="m 197.37834,110 h -13.99695 m -3.51319,0 c 0,0.97014 0.78645,1.7566 1.7566,1.7566 0.97014,0 1.7566,-0.78646 1.75659,-1.7566 0,-0.97014 -0.78645,-1.75659 -1.75659,-1.75659 -0.97014,0 -1.75659,0.78645 -1.7566,1.75659 z"
       sodipodi:nodetypes="ccsssss" /><path
       id="path36"
       style="opacity:0.84;fill:none;stroke:#00ffff;stroke-width:1;stroke-dasharray:none"
       d="M 197.76139,115.0464 177.8682,115 l -3.51319,-3.86817 m -3,-1.13183 c 0,0.97014 0.78645,1.7566 1.7566,1.7566 0.97014,0 1.7566,-0.78646 1.75659,-1.7566 0,-0.97014 -0.78645,-1.75659 -1.75659,-1.75659 -0.97014,0 -1.7566,0.78645 -1.7566,1.75659 z"
       sodipodi:nodetypes="cccsssss" /><path
       id="path37"
       style="opacity:0.84;fill:none;stroke:#00ffff;stroke-width:1;stroke-dasharray:none"
       d="m 192.8682,135 h -14.48681 m -3.51319,0 c 0,0.97014 0.78646,1.7566 1.7566,1.7566 0.97014,0 1.7566,-0.78646 1.75659,-1.7566 0,-0.97014 -0.78645,-1.75659 -1.75659,-1.75659 -0.97014,0 -1.75659,0.78645 -1.7566,1.75659 z"
       sodipodi:nodetypes="ccsssss" /><path
       id="path38"
       style="opacity:0.84;fill:none;stroke:#00ffff;stroke-width:1;stroke-dasharray:none"
       d="m 190.50694,147.12567 h -20.06663 m -3.51319,0 c 0,0.97014 0.78645,1.7566 1.75659,1.7566 0.97015,0 1.7566,-0.78646 1.7566,-1.7566 0,-0.97014 -0.78646,-1.75659 -1.7566,-1.75659 -0.97014,0 -1.75659,0.78645 -1.75659,1.75659 z"
       sodipodi:nodetypes="ccsssss" /><path
       id="path39"
       style="opacity:0.84;fill:none;stroke:#00ffff;stroke-width:1;stroke-dasharray:none"
       d="M 196.53104,120 H 175.9614 m -3.51319,0 c 0,0.97014 0.78645,1.7566 1.7566,1.7566 0.97014,0 1.7566,-0.78646 1.75659,-1.7566 0,-0.97014 -0.78645,-1.75659 -1.75659,-1.75659 -0.97014,0 -1.75659,0.78645 -1.7566,1.75659 z"
       sodipodi:nodetypes="ccsssss" /><path
       id="path40"
       style="opacity:0.84;fill:none;stroke:#00ffff;stroke-width:1;stroke-dasharray:none"
       d="m 191.74073,142.57362 h -18 l -2,-2.00449 -9.21662,-0.004 m -3.51319,0 c 0,0.97014 0.78645,1.7566 1.7566,1.7566 0.97014,0 1.75659,-0.78646 1.75659,-1.7566 0,-0.97014 -0.78646,-1.75659 -1.75659,-1.75659 -0.97014,0 -1.7566,0.78645 -1.7566,1.75659 z"
       sodipodi:nodetypes="ccccsssss" /><path
       id="path41"
       style="opacity:0.84;fill:none;stroke:#00ffff;stroke-width:1;stroke-dasharray:none"
       d="m 186.39426,166.99999 h -26 m -3.51319,0 c -1e-5,0.97014 0.78645,1.7566 1.75659,1.7566 0.97015,0 1.7566,-0.78646 1.7566,-1.7566 0,-0.97014 -0.78646,-1.75659 -1.7566,-1.75659 -0.97014,0 -1.75659,0.78645 -1.75659,1.75659 z"
       sodipodi:nodetypes="ccsssss" /><path
       id="path42"
       style="opacity:0.84;fill:none;stroke:#00ffff;stroke-width:1;stroke-dasharray:none"
       d="m 184.39426,173.99999 h -9.48681 m -3.51319,0 c 0,0.97014 0.78645,1.7566 1.75659,1.7566 0.97015,0 1.7566,-0.78646 1.7566,-1.7566 0,-0.97014 -0.78646,-1.75659 -1.7566,-1.75659 -0.97013,0 -1.75659,0.78645 -1.75659,1.75659 z"
       sodipodi:nodetypes="ccsssss" /><path
       id="path43"
       style="opacity:0.84;fill:none;stroke:#00ffff;stroke-width:1;stroke-dasharray:none"
       d="m 182.8682,180.99999 h -16.96075 m -3.51319,0 c 0,0.97014 0.78645,1.7566 1.75659,1.7566 0.97015,0 1.7566,-0.78646 1.7566,-1.7566 0,-0.97014 -0.78646,-1.7566 -1.7566,-1.75659 -0.97013,0 -1.75659,0.78645 -1.75659,1.75659 z"
       sodipodi:nodetypes="ccsssss" /><path
       id="path44"
       style="opacity:0.84;fill:none;stroke:#00ffff;stroke-width:1;stroke-dasharray:none"
       d="m 187.39426,161.99999 h -14 l -3,-3 h -8.34828 m -3.51319,0 c 0,0.97014 0.78645,1.7566 1.7566,1.7566 0.97014,0 1.75659,-0.78646 1.75659,-1.7566 0,-0.97014 -0.78646,-1.75659 -1.75659,-1.75659 -0.97014,0 -1.7566,0.78645 -1.7566,1.75659 z"
       sodipodi:nodetypes="ccccsssss" /></g></svg>
